<svg fill="#c9ff00" xmlns="http://www.w3.org/2000/svg"  viewBox="0 0 64 64" width="64px" height="64px"><path d="M 32 0 C 15.51367 0 4 10.28027 4 25 A 1 1 0 0 0 6 25 C 6 22.42072 7.231815 20.95532 10.078125 20.34375 C 10.111935 20.43469 22.826172 37.111328 22.826172 37.111328 L 19 45 L 19 63 A 0.99974 0.99974 0 0 0 20 64 L 44 64 A 0.99974 0.99974 0 0 0 45 63 L 45 45 L 41.173828 37.111328 C 41.173828 37.111328 53.888085 20.43469 53.921875 20.34375 C 56.768185 20.95532 58 22.42072 58 25 A 1 1 0 0 0 60 25 C 60 10.28027 48.48633 0 32 0 z M 29.417969 2.0976562 A 28.86594 28.86594 0 0 0 22.072266 20.126953 C 20.027836 18.272393 16.75629 18 14 18 C 12.3291 18 8.9677687 18.000003 6.6054688 19.595703 C 8.9026487 9.7119131 17.558899 2.9541063 29.417969 2.0976562 z M 34.582031 2.0976562 C 46.440981 2.9541063 55.097351 9.7119131 57.394531 19.595703 C 55.032231 18.000003 51.6709 18 50 18 C 47.238 18 43.957764 18.273502 41.927734 20.138672 A 28.86817 28.86817 0 0 0 34.582031 2.0976562 z M 32.001953 2.3320312 A 26.79514 26.79514 0 0 1 39.933594 20.005859 C 37.881794 18.261729 34.69458 18 32 18 C 29.2998 18 26.105046 18.261465 24.066406 20.015625 A 26.92 26.92 0 0 1 32.001953 2.3320312 z M 14 20 C 17.9873 20 20.315435 20.731444 21.328125 22.302734 A 1.98566 1.98566 0 0 0 24.671875 22.304688 A 3.78782 3.78782 0 0 1 26.023438 21.087891 C 26.029687 21.158261 30.640625 36 30.640625 36 L 24.494141 36 L 12.298828 20.054688 C 12.830568 20.020808 13.39264 20 14 20 z M 31.353516 20 A 17.93561 17.93561 0 0 1 32 20 A 17.93645 17.93645 0 0 1 36.203125 20.416016 C 36.139585 20.502626 32 33.646484 32 33.646484 C 32 33.646484 27.860535 20.502556 27.796875 20.416016 A 17.93561 17.93561 0 0 1 31.353516 20 z M 50 20 C 50.60736 20 51.169432 20.020808 51.701172 20.054688 L 39.505859 36 L 33.359375 36 C 33.359375 36 37.970352 21.158321 37.976562 21.087891 A 3.78762 3.78762 0 0 1 39.328125 22.302734 A 1.98566 1.98566 0 0 0 42.669922 22.304688 C 43.682642 20.732908 46.0127 20 50 20 z M 24.617188 38 L 39.382812 38 L 42.382812 44 L 21.617188 44 L 24.617188 38 z M 57.900391 38.001953 A 3.99178 3.99178 0 0 0 54.527344 40.035156 A 3.89965 3.89965 0 0 0 54 40 A 4 4 0 0 0 54 48 L 61 48 A 3.00016 3.00016 0 0 0 61.996094 42.169922 C 61.999004 42.113282 62 42.05664 62 42 A 3.99178 3.99178 0 0 0 57.900391 38.001953 z M 57.984375 40 A 1.99339 1.99339 0 0 1 60 42 A 1.96118 1.96118 0 0 1 59.871094 42.677734 A 0.99928 0.99928 0 0 0 60.902344 44.015625 C 60.906244 44.015625 60.987337 44.0039 61.023438 44 A 0.99989 0.99989 0 0 1 61 46 L 54 46 A 2 2 0 1 1 54.742188 42.146484 A 1.00008 1.00008 0 0 0 56.080078 41.482422 A 1.99339 1.99339 0 0 1 57.984375 40 z M 21 46 L 43 46 L 43 62 L 21 62 L 21 46 z M 28 48 A 3 3 0 0 0 28 54 L 36 54 A 3 3 0 0 0 36 48 L 28 48 z M 7.9003906 48.001953 A 3.99178 3.99178 0 0 0 4.5273438 50.035156 A 3.89965 3.89965 0 0 0 4 50 A 4 4 0 0 0 4 58 L 11 58 A 3.00016 3.00016 0 0 0 11.996094 52.169922 C 11.999004 52.113282 12 52.05664 12 52 A 3.99178 3.99178 0 0 0 7.9003906 48.001953 z M 7.984375 50 A 1.99339 1.99339 0 0 1 10 52 A 1.96118 1.96118 0 0 1 9.8710938 52.677734 A 0.99928 0.99928 0 0 0 10.902344 54.015625 C 10.906244 54.015625 10.987338 54.0039 11.023438 54 A 0.99989 0.99989 0 0 1 11 56 L 4 56 A 2 2 0 1 1 4.7421875 52.146484 A 1.00008 1.00008 0 0 0 6.0800781 51.482422 A 1.99339 1.99339 0 0 1 7.984375 50 z M 27.958984 50 A 1 1 0 0 1 28 50 L 36 50 A 1 1 0 0 1 36 52 L 28 52 A 1 1 0 0 1 27.958984 50 z M 35 58 L 35 60 L 37 60 L 37 58 L 35 58 z M 39 58 L 39 60 L 41 60 L 41 58 L 39 58 z"/></svg>