<?xml version="1.0" encoding="utf-8"?>
<!-- Generator: Adobe Illustrator 27.2.0, SVG Export Plug-In . SVG Version: 6.00 Build 0)  -->
<svg version="1.1" id="Layer_1" xmlns="http://www.w3.org/2000/svg" xmlns:xlink="http://www.w3.org/1999/xlink" x="0px" y="0px"
	 viewBox="0 0 500 156.1" style="enable-background:new 0 0 500 156.1;" xml:space="preserve">
<style type="text/css">
	.st0{fill:#1D9BF1;}
	.st1{fill:#1D1D1B;}
</style>
<g>
	<path class="st0" d="M134.1,74.2h-24.7h-4.7c-0.7,3.4-2.1,6.2-4.1,8.4c-2,2.3-4.5,3.9-7.7,5c-3.2,1.1-6.9,1.7-11.1,1.7
		c-4.8,0-8.8-0.9-12.2-2.6c-3.4-1.7-6-4.2-7.8-7.3c-1.8-3.2-2.7-7-2.7-11.4c0-4.4,0.9-8.2,2.7-11.4c1.8-3.2,4.4-5.6,7.8-7.3
		c3.4-1.7,7.5-2.5,12.2-2.5c4.3,0,8,0.6,11.1,1.8c3.2,1.2,5.7,2.9,7.7,5.2c2,2.3,3.3,5,4.1,8.2h3.1h26.2h2.5
		c-0.3-2.5-0.8-4.8-1.4-7.1c-1.5-5.6-3.9-10.6-7.3-15.1c-4.8-6.3-11.1-11.2-19-14.8c-7.9-3.5-16.9-5.3-27.1-5.3c-11,0-20.6,2-28.8,6
		c-8.2,4-14.6,9.7-19.1,16.9S27.1,58.4,27.1,68c0,9.7,2.3,18.2,6.8,25.4s10.9,12.9,19.1,16.9c8.2,4,17.8,6,28.8,6
		c10.2,0,19.2-1.8,27.1-5.3s14.2-8.4,19-14.8c3.4-4.5,5.8-9.5,7.3-15.1c0.6-2.3,1.1-4.6,1.4-7.1H134.1z"/>
	<path class="st0" d="M140.8,68c0,9.7,2.3,18.2,7,25.4s11.2,12.9,19.6,16.9c8.4,4,18.2,6,29.5,6c11.2,0,21.1-2,29.5-6
		c8.4-4,15-9.7,19.6-16.9c4.7-7.3,7-15.7,7-25.4c0-9.7-2.3-18.2-7-25.4c-4.7-7.3-11.2-12.9-19.6-16.9c-8.4-4-18.2-6-29.5-6
		c-11.2,0-21.1,2-29.5,6c-8.4,4-15,9.7-19.6,16.9S140.8,58.4,140.8,68z M175.9,79.1c-0.1-0.1-0.2-0.2-0.2-0.3
		c-1.9-3-2.9-6.6-2.9-10.8c0-4.2,1-7.8,2.9-10.8c1.9-3,4.7-5.3,8.3-6.9c0.3-0.1,0.6-0.3,1-0.4c3.4-1.3,7.4-2,12-2
		c5,0,9.3,0.8,12.9,2.4c3.6,1.6,6.4,3.9,8.3,6.9c1.9,3,2.9,6.6,2.9,10.8c0,4.2-1,7.8-2.9,10.8c-1.9,3-4.7,5.3-8.3,6.9
		c-3.6,1.6-7.9,2.4-12.9,2.4c-5,0-9.3-0.8-12.9-2.4C180.5,84.2,177.8,82,175.9,79.1z"/>
	<path class="st0" d="M357,110.4L336,80.7c0.9-0.3,1.7-0.7,2.6-1c5.5-2.5,9.8-6.1,12.9-10.8c3.1-4.6,4.6-10,4.6-16.1
		c0-6.2-1.5-11.6-4.6-16.2c-3.1-4.6-7.4-8.2-12.9-10.8s-12-3.9-19.4-3.9h-57.8v92.3H293V83.4h9.4l20.9,30.8h33h3.3L357,110.4z
		 M293,44.2h21.2c3.1,0,5.5,0.7,7.3,2.2c1.7,1.5,2.6,3.6,2.6,6.4c0,2.8-0.9,4.9-2.6,6.4c-1.7,1.5-4.1,2.2-7.3,2.2H293V44.2z"/>
	<polygon class="st0" points="370.3,68 363.6,114.2 452.9,114.2 452.9,89.1 397.1,89.1 398.8,79 448.3,79 448.3,57.1 398.8,57.1 
		397.1,47 452.3,47 452.3,21.9 363.6,21.9 	"/>
	<g>
		<path class="st1" d="M175.9,79.1c1.9,2.8,4.6,5,8.1,6.6c3.6,1.6,7.9,2.4,12.9,2.4c5,0,9.3-0.8,12.9-2.4c3.6-1.6,6.4-3.9,8.3-6.9
			c1.9-3,2.9-6.6,2.9-10.8c0-4.2-1-7.8-2.9-10.8c-1.9-3-4.7-5.3-8.3-6.9c-3.6-1.6-7.9-2.4-12.9-2.4c-4.6,0-8.6,0.7-12,2
			c-0.3,0.1-0.6,0.2-1,0.4c-3.6,1.6-6.4,3.9-8.3,6.9c-1.9,3-2.9,6.6-2.9,10.8c0,4.2,1,7.8,2.9,10.8C175.8,78.9,175.8,79,175.9,79.1z
			"/>
		<path class="st1" d="M321.5,59.2c1.7-1.5,2.6-3.6,2.6-6.4c0-2.8-0.9-4.9-2.6-6.4c-1.7-1.5-4.1-2.2-7.3-2.2H293v17.2h21.2
			C317.3,61.4,319.7,60.7,321.5,59.2z"/>
		<path class="st1" d="M475.4,97.5V74h3.9V34.9l-10-10v0h0l-10.1-10.1h-8.4l0,0.1h-95.4l2.7,18.4c-0.3-0.2-0.6-0.4-0.8-0.6
			c0,0,0-0.1-0.1-0.1c-3.8-5.6-9.1-10.1-15.8-13.2c-6.4-3-14-4.5-22.3-4.5h-64.8v24.7c-1.4-1.4-3-2.7-4.6-3.9
			c-5.2-6.8-12-12.3-20.3-16.3l0,0c-9.3-4.5-20.3-6.7-32.5-6.7c-12.2,0-23.2,2.3-32.5,6.7c-9.6,4.6-17.1,11.1-22.5,19.4
			c-0.6,0.9-1.1,1.9-1.7,2.8c-2-2.2-4.3-4.3-6.7-6.1c0,0,0,0,0,0c-5.5-7.2-12.8-12.9-21.7-16.9c-8.7-3.9-18.8-5.9-29.9-5.9
			c-12,0-22.7,2.3-31.9,6.7C40.6,24,33.2,30.6,28,38.9c-5.2,8.4-7.9,18.2-7.9,29.1c0,11,2.7,20.8,7.9,29.1
			c3.3,5.3,7.5,9.9,12.6,13.7c2.9,3.8,6.2,7.1,10.1,10c5,6.6,11.5,11.9,19.4,15.8c9.1,4.5,19.9,6.7,31.9,6.7c11.1,0,21.2-2,29.9-5.9
			c8.9-4,16.2-9.7,21.7-16.9c1.5-2,2.8-4,4-6.2c2,2.2,4.2,4.2,6.7,6.1c5.2,6.8,12,12.3,20.2,16.2c9.3,4.5,20.3,6.7,32.5,6.7
			c12.2,0,23.2-2.3,32.5-6.7c4.6-2.2,8.7-4.9,12.4-8l12.5,12.5H320v-17.6l19.7,17.6h35.7h17.8h86.6v-39.1L475.4,97.5z M363.6,21.9
			h88.7V47h-55.2l1.7,10.1h49.6V79h-49.6l-1.7,10.1h55.8v25.1h-89.3l6.8-46.2L363.6,21.9z M261.3,21.9h57.8c7.4,0,13.8,1.3,19.4,3.9
			s9.8,6.2,12.9,10.8c3.1,4.6,4.6,10,4.6,16.2c0,6.1-1.5,11.4-4.6,16.1c-3.1,4.6-7.4,8.2-12.9,10.8c-0.8,0.4-1.7,0.7-2.6,1
			l21.1,29.7l2.7,3.8h-3.3h-33l-20.9-30.8H293v30.8h-31.8V21.9z M147.8,42.6c4.7-7.3,11.2-12.9,19.6-16.9c8.4-4,18.2-6,29.5-6
			c11.2,0,21.1,2,29.5,6c8.4,4,15,9.7,19.6,16.9c4.7,7.3,7,15.7,7,25.4c0,9.7-2.3,18.2-7,25.4c-4.7,7.3-11.2,12.9-19.6,16.9
			c-8.4,4-18.2,6-29.5,6c-11.2,0-21.1-2-29.5-6c-8.4-4-15-9.7-19.6-16.9s-7-15.7-7-25.4C140.8,58.4,143.1,49.9,147.8,42.6z
			 M33.9,93.5c-4.6-7.3-6.8-15.7-6.8-25.4c0-9.7,2.3-18.2,6.8-25.4s10.9-12.9,19.1-16.9c8.2-4,17.8-6,28.8-6
			c10.2,0,19.2,1.8,27.1,5.3c7.9,3.5,14.2,8.5,19,14.8c3.4,4.5,5.8,9.5,7.3,15.1c0.6,2.3,1.1,4.6,1.4,7.1h-2.5h-26.2h-3.1
			c-0.7-3.2-2.1-5.9-4.1-8.2c-2-2.3-4.5-4-7.7-5.2c-3.2-1.2-6.9-1.8-11.1-1.8c-4.8,0-8.8,0.8-12.2,2.5c-3.4,1.7-6,4.1-7.8,7.3
			c-1.8,3.2-2.7,7-2.7,11.4c0,4.4,0.9,8.2,2.7,11.4c1.8,3.2,4.4,5.6,7.8,7.3c3.4,1.7,7.5,2.6,12.2,2.6c4.3,0,8-0.6,11.1-1.7
			c3.2-1.1,5.7-2.8,7.7-5c2-2.3,3.3-5.1,4.1-8.4h4.7h24.7h2.5c-0.3,2.5-0.8,4.8-1.4,7.1c-1.5,5.6-3.9,10.6-7.3,15.1
			c-4.8,6.3-11.1,11.2-19,14.8s-16.9,5.3-27.1,5.3c-11,0-20.6-2-28.8-6C44.8,106.4,38.5,100.7,33.9,93.5z"/>
	</g>
</g>
</svg>
