<svg fill="#c9ff00" xmlns="http://www.w3.org/2000/svg"  viewBox="0 0 64 64" width="64px" height="64px"><path d="M 1 0 A 0.99974 0.99974 0 0 0 0 1 L 0 9 A 0.99974 0.99974 0 0 0 1 10 L 9 10 A 0.99974 0.99974 0 0 0 10 9 L 10 1 A 0.99974 0.99974 0 0 0 9 0 L 1 0 z M 55 0 A 0.99974 0.99974 0 0 0 54 1 L 54 9 A 0.99974 0.99974 0 0 0 55 10 L 63 10 A 0.99974 0.99974 0 0 0 64 9 L 64 1 A 0.99974 0.99974 0 0 0 63 0 L 55 0 z M 2 2 L 8 2 L 8 8 L 2 8 L 2 2 z M 56 2 L 62 2 L 62 8 L 56 8 L 56 2 z M 12 4 L 12 6 L 16 6 L 16 4 L 12 4 z M 18 4 L 18 6 L 22 6 L 22 4 L 18 4 z M 24 4 L 24 6 L 28 6 L 28 4 L 24 4 z M 30 4 L 30 6 L 34 6 L 34 4 L 30 4 z M 36 4 L 36 6 L 40 6 L 40 4 L 36 4 z M 42 4 L 42 6 L 46 6 L 46 4 L 42 4 z M 48 4 L 48 6 L 52 6 L 52 4 L 48 4 z M 4 12 L 4 16 L 6 16 L 6 12 L 4 12 z M 58 12 L 58 16 L 60 16 L 60 12 L 58 12 z M 43.298828 12.615234 A 0.99964 0.99964 0 0 0 42.607422 12.908203 L 33.292969 22.222656 A 0.99989 0.99989 0 0 0 34.707031 23.634766 L 35.535156 22.808594 L 36.949219 24.222656 L 38.363281 22.806641 L 36.949219 21.392578 L 39.070312 19.271484 L 41.898438 22.101562 L 43.3125 20.6875 L 40.484375 17.857422 L 43.3125 15.029297 L 48.970703 20.6875 L 40.292969 29.365234 A 1 1 0 0 0 41 31.070312 L 41 31.072266 A 0.99676 0.99676 0 0 0 41.707031 30.777344 L 51.091797 21.392578 A 0.99964 0.99964 0 0 0 51.091797 19.978516 L 44.021484 12.908203 A 0.99964 0.99964 0 0 0 43.298828 12.615234 z M 21.921875 14.828125 A 3.07347 3.07347 0 0 0 19.919922 15.675781 L 15.675781 19.917969 A 2.9995 2.9995 0 0 0 15.675781 24.160156 L 18.503906 26.990234 L 38.302734 46.789062 A 1.00273 1.00273 0 0 0 38.785156 47.056641 L 47.978516 49.177734 A 1.001 1.001 0 0 0 48.910156 48.910156 A 1.00047 1.00047 0 0 0 49.177734 47.978516 L 47.054688 38.785156 A 0.99512 0.99512 0 0 0 46.789062 38.302734 L 26.990234 18.503906 L 24.160156 15.675781 A 3.07347 3.07347 0 0 0 21.921875 14.828125 z M 22.054688 16.796875 A 1.00081 1.00081 0 0 1 22.746094 17.089844 L 24.867188 19.210938 L 19.210938 24.869141 L 17.089844 22.746094 A 1.002 1.002 0 0 1 17.089844 21.332031 L 21.332031 17.089844 A 1.00081 1.00081 0 0 1 22.054688 16.796875 z M 4 18 L 4 22 L 6 22 L 6 18 L 4 18 z M 58 18 L 58 22 L 60 22 L 60 18 L 58 18 z M 26.283203 20.625 L 44.726562 39.070312 L 42.943359 39.171875 A 1.00039 1.00039 0 0 0 42 40.171875 L 42 42 L 40.171875 42 A 0.99952 0.99952 0 0 0 39.173828 42.943359 L 39.072266 44.728516 L 20.625 26.283203 L 22.746094 24.160156 L 39.009766 40.423828 A 0.99989495 0.99989495 0 1 0 40.423828 39.009766 L 24.160156 22.746094 L 26.283203 20.625 z M 4 24 L 4 28 L 6 28 L 6 24 L 4 24 z M 58 24 L 58 28 L 60 28 L 60 24 L 58 24 z M 4 30 L 4 34 L 6 34 L 6 30 L 4 30 z M 58 30 L 58 34 L 60 34 L 60 30 L 58 30 z M 22.875 33.005859 A 0.99989 0.99989 0 0 0 22.222656 33.292969 L 12.908203 42.607422 A 0.99964 0.99964 0 0 0 12.908203 44.021484 L 19.978516 51.091797 A 0.99963 0.99963 0 0 0 21.392578 51.091797 L 30.707031 41.777344 A 0.99989 0.99989 0 0 0 29.292969 40.365234 L 20.685547 48.970703 L 15.029297 43.314453 L 21.394531 36.949219 L 22.808594 38.363281 L 24.222656 36.949219 L 22.808594 35.535156 L 23.634766 34.707031 A 0.99989 0.99989 0 0 0 22.875 33.005859 z M 4 36 L 4 40 L 6 40 L 6 36 L 4 36 z M 58 36 L 58 40 L 60 40 L 60 36 L 58 36 z M 19.273438 39.072266 L 17.859375 40.486328 L 20.6875 43.314453 L 22.101562 41.900391 L 19.273438 39.072266 z M 45.521484 41.029297 L 45.931641 42.810547 A 3.61868 3.61868 0 0 0 43.960938 43.960938 A 3.62275 3.62275 0 0 0 42.810547 45.931641 L 41.029297 45.521484 L 41.115234 44 L 43 44 A 0.99974 0.99974 0 0 0 44 43 L 44 41.115234 L 45.521484 41.029297 z M 4 42 L 4 46 L 6 46 L 6 42 L 4 42 z M 58 42 L 58 46 L 60 46 L 60 42 L 58 42 z M 46.226562 44.787109 C 46.282652 44.825009 46.869141 46.869141 46.869141 46.869141 C 46.869141 46.869141 44.825319 46.282533 44.787109 46.226562 A 2.85669 2.85669 0 0 1 46.226562 44.787109 z M 4 48 L 4 52 L 6 52 L 6 48 L 4 48 z M 58 48 L 58 52 L 60 52 L 60 48 L 58 48 z M 1 54 A 0.99974 0.99974 0 0 0 0 55 L 0 63 A 0.99974 0.99974 0 0 0 1 64 L 9 64 A 0.99974 0.99974 0 0 0 10 63 L 10 55 A 0.99974 0.99974 0 0 0 9 54 L 1 54 z M 55 54 A 0.99974 0.99974 0 0 0 54 55 L 54 63 A 0.99974 0.99974 0 0 0 55 64 L 63 64 A 0.99974 0.99974 0 0 0 64 63 L 64 55 A 0.99974 0.99974 0 0 0 63 54 L 55 54 z M 2 56 L 8 56 L 8 62 L 2 62 L 2 56 z M 56 56 L 62 56 L 62 62 L 56 62 L 56 56 z M 12 58 L 12 60 L 16 60 L 16 58 L 12 58 z M 18 58 L 18 60 L 22 60 L 22 58 L 18 58 z M 24 58 L 24 60 L 28 60 L 28 58 L 24 58 z M 30 58 L 30 60 L 34 60 L 34 58 L 30 58 z M 36 58 L 36 60 L 40 60 L 40 58 L 36 58 z M 42 58 L 42 60 L 46 60 L 46 58 L 42 58 z M 48 58 L 48 60 L 52 60 L 52 58 L 48 58 z"/></svg>