<svg fill="#c9ff00" xmlns="http://www.w3.org/2000/svg"  viewBox="0 0 64 64" width="64px" height="64px"><path d="M33,16V11.71a9.06,9.06,0,0,0,3,.53,6,6,0,0,0,3-.78c3-1.74,3.32-5.73,3.33-5.9a1,1,0,0,0-.56-1C41.62,4.53,38,2.79,35,4.54a6.09,6.09,0,0,0-2.4,2.64,7.25,7.25,0,0,0-2.06-5.12C27.31-1.16,22.64.34,22.44.41a1,1,0,0,0-.63.63c-.07.2-1.57,4.87,1.65,8.09a7.29,7.29,0,0,0,5.3,2.07A9.81,9.81,0,0,0,31,10.94V16a24,24,0,1,0,2,0ZM54,40a21.88,21.88,0,0,1-3.85,12.42l-1-1.57L50,48.32a1,1,0,0,0-.06-.77l-1-2A1,1,0,0,0,48,45H45a1,1,0,0,0-.55.17l-2.6,1.73-2.06-.69-.65-1.94,1.57-1.56a1.06,1.06,0,0,0,.24-.39l.84-2.53L44.32,39A1,1,0,0,0,45,38V35a1,1,0,0,0-.55-.89l-1.63-.82-.53-1.58,3-.74A1,1,0,0,0,46,30V27.41l2.24-2.24A21.91,21.91,0,0,1,54,40ZM36,6.27a5.32,5.32,0,0,1,4.22-.13A5.34,5.34,0,0,1,38,9.73a4.53,4.53,0,0,1-2.87.45l2.36-1.31a1,1,0,1,0-1-1.74L34.24,8.39A4.37,4.37,0,0,1,36,6.27ZM24.88,7.72c-1.83-1.82-1.53-4.45-1.3-5.54,1.09-.23,3.72-.52,5.54,1.3a5.51,5.51,0,0,1,1.45,4.3l-3.9-3.52a1,1,0,0,0-1.34,1.48l3.81,3.44A5.5,5.5,0,0,1,24.88,7.72Zm1.42,11,3.24,4.86-1,.5a1,1,0,0,0-.5,1.21l.73,2.17-.58.29-1.49-1.49A1,1,0,0,0,26,26H23a1,1,0,0,0-.89.55l-1,2a1,1,0,0,0,.18,1.16l1.49,1.49-.53,1.05-1.7.86a1,1,0,0,0-.52.63,1,1,0,0,0,.14.81l1.54,2.32-.2.21L16.8,38a1,1,0,0,0-.76.69,1,1,0,0,0,.25,1l3.84,3.83.92,2.78A1,1,0,0,0,22,47h2a1.19,1.19,0,0,0,.32,0l2.53-.85,2.6,1.73A1,1,0,0,0,30,48h1.5L34,51.33V54a1,1,0,0,0,0,.24L34.72,57H32.24l-3.79-1.89a.9.9,0,0,0-.21-.08l-3.55-.89-.8-1.59a.89.89,0,0,0-.34-.38l-2.77-1.85-1.89-3.77a.89.89,0,0,0-.34-.38l-3-2a1,1,0,0,0-.92-.1l-3.9,1.56A22,22,0,0,1,26.3,18.75ZM32,62A22,22,0,0,1,11.33,47.54l3.55-1.42,2.34,1.56,1.89,3.77a.89.89,0,0,0,.34.38l2.77,1.85.89,1.77a1,1,0,0,0,.65.52l3.89,1,3.9,2A1,1,0,0,0,32,59h4a1,1,0,0,0,.79-.38,1,1,0,0,0,.18-.86l-1-3.88V51a1,1,0,0,0-.2-.6l-3-4A1,1,0,0,0,32,46H30.3l-2.75-1.83a1,1,0,0,0-.87-.12l-2.84,1H22.72L22,42.68a1.06,1.06,0,0,0-.24-.39L19,39.61,22.2,39a1,1,0,0,0,.51-.27l1-1a1,1,0,0,0,.12-1.26l-1.37-2.06,1-.5a.94.94,0,0,0,.44-.44l1-2a1,1,0,0,0-.18-1.16L23.22,28.8l.4-.8h2l1.7,1.71a1,1,0,0,0,1.16.18l2-1a1,1,0,0,0,.5-1.21l-.73-2.17,1.23-.62a1,1,0,0,0,.52-.63,1,1,0,0,0-.14-.81L28.4,18.3A22.42,22.42,0,0,1,32,18a21.91,21.91,0,0,1,14.83,5.76l-2.54,2.53A1,1,0,0,0,44,27v2.22L40.76,30a1,1,0,0,0-.71,1.29l1,3a1,1,0,0,0,.5.57l1.45.73v1.66l-2.32.77a1,1,0,0,0-.63.63l-.92,2.78-1.84,1.83a1,1,0,0,0-.24,1l1,3a1,1,0,0,0,.63.63l3,1a1,1,0,0,0,.87-.12L45.3,47h2.08l.54,1.08-.87,2.6a1,1,0,0,0,.12.87l1.7,2.55A21.94,21.94,0,0,1,32,62Z"/></svg>