<svg fill="#c9ff00" xmlns="http://www.w3.org/2000/svg"  viewBox="0 0 64 64" width="64px" height="64px"><path d="M 19.789062 0.015625 A 19 19 0 0 0 0 19 A 19 19 0 0 0 19 38 A 19 19 0 0 0 19.789062 0.015625 z M 19 2 A 17 17 0 1 1 2 19 A 17 17 0 0 1 19 2 z M 12.019531 6.5996094 A 1 1 0 0 0 11.220703 7.0390625 L 8.3496094 11.320312 C 8.1896094 11.610312 4.5307813 18.429219 12.050781 25.949219 C 15.810781 29.709219 19.399844 30.669922 22.089844 30.669922 A 10.11 10.11 0 0 0 26.75 29.609375 L 31 26.779297 A 1 1 0 0 0 31.439453 25.980469 A 1 1 0 0 0 31.050781 25.150391 L 26.769531 22 A 3 3 0 0 0 22.839844 22.279297 L 22 23.099609 C 21.47 23.559609 19.74 23.71 17 21 C 14.26 18.29 14.440859 16.560781 14.880859 16.050781 L 15.769531 15.160156 A 3 3 0 0 0 16.050781 11.230469 L 12.849609 7 A 1 1 0 0 0 12.019531 6.5996094 z M 49 9 A 1 1 0 0 0 48.080078 10.390625 L 51.080078 17.390625 A 1 1 0 0 0 52.919922 17.390625 L 55.919922 10.390625 A 1 1 0 0 0 55 9 L 49 9 z M 12.089844 9.3007812 L 14.439453 12.429688 A 1 1 0 0 1 14.349609 13.740234 L 13.449219 14.640625 C 13.339219 14.750625 10.680078 17.520156 15.580078 22.410156 C 17.530078 24.410156 19.370547 25.359375 21.060547 25.359375 A 3.3 3.3 0 0 0 23.349609 24.539062 L 24.25 23.640625 A 1 1 0 0 1 25.560547 23.550781 L 28.699219 25.900391 L 25.699219 27.900391 C 25.469219 28.030391 19.869219 30.949062 13.449219 24.539062 C 7.0292188 18.129062 10.000781 12.519375 10.050781 12.359375 L 10.089844 12.359375 L 12.089844 9.3007812 z M 50.519531 11 L 53.480469 11 L 52 14.460938 L 50.519531 11 z M 44.998047 13 A 1 1 0 0 0 44.449219 13.199219 L 40.449219 16.199219 A 1 1 0 0 0 40.599609 17.890625 L 40.550781 17.890625 L 46.550781 20.890625 A 0.91 0.91 0 0 0 47 21 A 1 1 0 0 0 48 19.679688 L 46 13.679688 A 1 1 0 0 0 44.998047 13 z M 58.943359 13.003906 A 1 1 0 0 0 58.699219 13.050781 A 1 1 0 0 0 58.050781 13.679688 L 56.050781 19.679688 A 1 1 0 0 0 57 21 A 1 1 0 0 0 57.449219 20.890625 L 63.449219 17.890625 A 1 1 0 0 0 63.599609 16.199219 L 59.599609 13.199219 A 1 1 0 0 0 58.943359 13.003906 z M 44.490234 15.630859 L 45.289062 18.029297 L 42.890625 16.830078 L 44.490234 15.630859 z M 59.509766 15.630859 L 61.109375 16.830078 L 58.710938 18 L 59.509766 15.630859 z M 46 24 C 36.27 24 35 30.769844 35 30.839844 A 0.86 0.86 0 0 0 35 31 L 35 35 L 37 35 L 37 31.099609 C 37.14 30.499609 38.44 26 46 26 C 53.58 26 54.86 30.479609 55 31.099609 L 55 35 L 57 35 L 57 31 A 0.86 0.86 0 0 0 57 30.839844 C 57 30.769844 55.73 24 46 24 z M 46 27 C 39.27 27 38.08 31.559766 38 31.759766 A 1 1 0 0 0 38.75 33 A 1 1 0 0 0 40 32.25 C 40 32.12 41 29 46 29 C 51 29 52 32.120234 52 32.240234 A 1.0283968 1.0283968 0 0 0 54 31.759766 C 54 31.559766 52.73 27 46 27 z M 48.955078 31.027344 A 1.0040916 1.0040916 0 0 0 48.289062 31.320312 A 9.91 9.91 0 0 1 42 34 A 1 1 0 0 0 42 36 A 11.93 11.93 0 0 0 46.529297 34.910156 A 5.57 5.57 0 0 0 50 36 A 1 1 0 0 0 50 34 A 4.16 4.16 0 0 1 48.509766 33.740234 A 11.15 11.15 0 0 0 49.710938 32.740234 A 1.0040916 1.0040916 0 0 0 48.955078 31.027344 z M 38.970703 34 A 1 1 0 0 0 38 35 L 38 40 A 8 8 0 0 0 40.439453 45.740234 L 34.5 49.130859 A 1 1 0 0 0 34 50 L 34 56 L 29 56 A 1 1 0 0 0 28 57 L 28 63 A 1 1 0 0 0 29 64 L 63 64 A 1 1 0 0 0 64 63 L 64 57 A 1 1 0 0 0 63 56 L 58 56 L 58 50 A 1 1 0 0 0 57.5 49.130859 L 50.5 45.130859 A 1 1 0 0 0 49.5 45.130859 A 7.4 7.4 0 0 1 46 46 A 6 6 0 0 1 40 40 L 40 35 A 1 1 0 0 0 38.970703 34 z M 53 34 A 1 1 0 0 0 52 35 L 52 39 A 1 1 0 0 0 54 39 L 54 35 A 1 1 0 0 0 53 34 z M 55.109375 35.998047 A 3.89 3.89 0 0 0 55 36 L 55 38 A 2 2 0 0 1 55 42 L 50 42 L 50 44 L 55 44 A 3.89 3.89 0 0 0 59 40 A 3.89 3.89 0 0 0 55.109375 35.998047 z M 37 36 A 4 4 0 0 0 37 44 L 37 42 A 2 2 0 0 1 37 38 L 37 36 z M 42 37 L 42 39 L 44 39 L 44 37 L 42 37 z M 48 37 L 48 39 L 50 39 L 50 37 L 48 37 z M 1 40 A 1 1 0 0 0 0 41 L 0 53 A 1 1 0 0 0 1 54 L 13.589844 54 L 17.289062 57.710938 A 1 1 0 0 0 18 58 A 0.84 0.84 0 0 0 18.380859 57.919922 A 1 1 0 0 0 19 57 L 19 54 L 29 54 A 1 1 0 0 0 30 53 L 30 41 A 1 1 0 0 0 29 40 L 1 40 z M 2 42 L 28 42 L 28 52 L 18 52 A 1 1 0 0 0 17 53 L 17 54.589844 L 14.710938 52.289062 A 1 1 0 0 0 14 52 L 2 52 L 2 42 z M 47 42 L 47 44 L 49 44 L 49 42 L 47 42 z M 7.125 44.001953 A 3 3 0 0 0 4 47 A 3 3 0 0 0 7 50 A 3 3 0 0 0 7.125 44.001953 z M 15.125 44.001953 A 3 3 0 0 0 12 47 A 3 3 0 0 0 15 50 A 3 3 0 0 0 15.125 44.001953 z M 23.125 44.001953 A 3 3 0 0 0 20 47 A 3 3 0 0 0 23 50 A 3 3 0 0 0 23.125 44.001953 z M 7 46 A 1 1 0 1 1 6 47 A 1 1 0 0 1 7 46 z M 15 46 A 1 1 0 1 1 14 47 A 1 1 0 0 1 15 46 z M 23 46 A 1 1 0 1 1 22 47 A 1 1 0 0 1 23 46 z M 42 47.140625 A 4 4 0 0 0 50 47.140625 L 56 50.580078 L 56 56 L 36 56 L 36 50.580078 L 42 47.140625 z M 44.160156 47.820312 A 7.92 7.92 0 0 0 46 48 A 9.51 9.51 0 0 0 47.820312 47.820312 A 2 2 0 0 1 44.160156 47.820312 z M 30 58 L 62 58 L 62 62 L 30 62 L 30 58 z"/></svg>