<svg fill="#c9ff00" xmlns="http://www.w3.org/2000/svg"  viewBox="0 0 64 64" width="64px" height="64px"><path d="M 31 0 L 31 2 L 33 2 L 33 0 L 31 0 z M 48.794922 0.00390625 A 7 7 0 0 0 42 7 C 42 10.59277 47.615229 16.954069 48.255859 17.667969 A 0.99879 0.99879 0 0 0 49 18 A 0.99879 0.99879 0 0 0 49.744141 17.667969 C 50.384771 16.954069 56 10.59277 56 7 A 7 7 0 0 0 48.794922 0.00390625 z M 24.683594 0.83203125 L 22.751953 1.3496094 L 23.269531 3.28125 L 25.201172 2.7636719 L 24.683594 0.83203125 z M 49 2 A 5.00588 5.00588 0 0 1 54 7 C 54 8.90625 51.18359 12.883299 49 15.474609 C 46.81641 12.884759 44 8.90869 44 7 A 5.00588 5.00588 0 0 1 49 2 z M 16.865234 3.7871094 L 15.134766 4.7871094 L 16.134766 6.5195312 L 17.865234 5.5195312 L 16.865234 3.7871094 z M 48.912109 4.0019531 A 3 3 0 0 0 49 10 A 3.00328 3.00328 0 0 0 52 7 A 3 3 0 0 0 48.912109 4.0019531 z M 32 6 A 26.02916 26.02916 0 0 0 6 32 A 1 1 0 0 0 8 32 A 24.0275 24.0275 0 0 1 32 8 A 1 1 0 0 0 32 6 z M 49.029297 6 A 1 1 0 0 1 49 8 A 1.001 1.001 0 0 1 48 7 A 1 1 0 0 1 49.029297 6 z M 10.080078 8.6660156 L 8.6660156 10.080078 L 10.080078 11.494141 L 11.494141 10.080078 L 10.080078 8.6660156 z M 32.832031 12.017578 A 20 20 0 0 0 12 32 A 20.0226 20.0226 0 0 0 32 52 A 20 20 0 0 0 32.832031 12.017578 z M 32.451172 14.005859 A 17.872 17.872 0 0 1 42.886719 17.699219 L 41.585938 19 L 39 19 A 0.99928 0.99928 0 0 0 38.292969 19.292969 L 35.292969 22.292969 A 0.99977 0.99977 0 0 0 35.167969 23.554688 L 37.167969 26.554688 A 0.99984 0.99984 0 0 0 38.242188 26.970703 L 42.242188 25.970703 A 0.99784 0.99784 0 0 0 42.707031 25.707031 L 44.328125 24.085938 L 48.548828 24.929688 A 17.863 17.863 0 0 1 49.322266 27.171875 L 46.837891 28 L 44 28 A 1.00067 1.00067 0 0 0 43.552734 28.105469 L 41.552734 29.105469 A 0.99636 0.99636 0 0 0 41.050781 29.683594 L 40.050781 32.683594 A 1.00008 1.00008 0 0 0 40.445312 33.832031 L 42.613281 35.277344 L 41.167969 37.445312 A 1.00048 1.00048 0 0 0 41.105469 38.447266 L 42.105469 40.447266 A 1.00343 1.00343 0 0 0 42.683594 40.949219 L 45 41.720703 L 45.378906 44 A 18.06325 18.06325 0 0 1 39 48.582031 L 39 47 A 1.00094 1.00094 0 0 0 38.832031 46.445312 L 36.832031 43.445312 A 0.99938 0.99938 0 0 0 35.445312 43.167969 L 32.927734 44.845703 L 29.744141 43.253906 L 27.894531 39.552734 A 1.00041 1.00041 0 0 0 26.445312 39.167969 L 24.126953 40.712891 L 20.216797 36.802734 L 21.894531 33.447266 A 0.99969 0.99969 0 0 0 21.554688 32.167969 L 19.289062 30.658203 L 19.617188 30 L 21 30 A 0.99908 0.99908 0 0 0 21.515625 29.857422 L 26.515625 26.857422 A 1.00017 1.00017 0 0 0 26.832031 25.445312 L 25.154297 22.927734 L 25.894531 21.447266 A 0.99956 0.99956 0 0 0 25.707031 20.292969 L 22.285156 16.871094 A 17.872 17.872 0 0 1 32.451172 14.005859 z M 4.7871094 15.134766 L 3.7871094 16.865234 L 5.5195312 17.865234 L 6.5195312 16.134766 L 4.7871094 15.134766 z M 59.212891 15.134766 L 57.480469 16.134766 L 58.480469 17.865234 L 60.212891 16.865234 L 59.212891 15.134766 z M 31.964844 16 A 0.99878 0.99878 0 0 0 31.292969 16.292969 L 29.585938 18 L 28 18 A 0.99974 0.99974 0 0 0 27 19 L 27 22 A 0.99985 0.99985 0 0 0 27.552734 22.894531 L 29.552734 23.894531 A 1.00147 1.00147 0 0 0 30.316406 23.949219 L 33.316406 22.949219 A 0.9984 0.9984 0 0 0 33.970703 22.242188 L 34.970703 18.242188 A 0.9994 0.9994 0 0 0 34.447266 17.105469 L 32.447266 16.105469 A 0.99878 0.99878 0 0 0 31.964844 16 z M 20.640625 18.054688 L 23.783203 21.197266 L 23.105469 22.552734 A 1.00048 1.00048 0 0 0 23.167969 23.554688 L 24.585938 25.681641 L 20.722656 28 L 19 28 A 1.0004 1.0004 0 0 0 18.105469 28.552734 L 17.105469 30.552734 A 0.99969 0.99969 0 0 0 17.445312 31.832031 L 19.710938 33.341797 L 18.105469 36.552734 A 0.99956 0.99956 0 0 0 18.292969 37.707031 L 23.292969 42.707031 A 1.00252 1.00252 0 0 0 24.554688 42.832031 L 26.611328 41.460938 L 28.105469 44.447266 A 1.00112 1.00112 0 0 0 28.552734 44.894531 L 32.552734 46.894531 A 1.00254 1.00254 0 0 0 33.554688 46.832031 L 35.722656 45.386719 L 37 47.302734 L 37 49.279297 A 17.98408 17.98408 0 0 1 20.640625 18.054688 z M 32.197266 18.216797 L 32.833984 18.535156 L 32.162109 21.224609 L 30.076172 21.919922 L 29 21.382812 L 29 20 L 30 20 A 0.99928 0.99928 0 0 0 30.707031 19.707031 L 32.197266 18.216797 z M 44.414062 18.998047 A 18.10055 18.10055 0 0 1 47.351562 22.650391 L 44.197266 22.019531 A 1.0005 1.0005 0 0 0 43.292969 22.292969 L 41.488281 24.097656 L 38.441406 24.859375 L 37.287109 23.126953 L 39.414062 21 L 42 21 A 0.99928 0.99928 0 0 0 42.707031 20.707031 L 44.414062 18.998047 z M 1.3496094 22.751953 L 0.83203125 24.683594 L 2.7636719 25.201172 L 3.28125 23.269531 L 1.3496094 22.751953 z M 62.650391 22.751953 L 60.71875 23.269531 L 61.236328 25.201172 L 63.167969 24.683594 L 62.650391 22.751953 z M 49.75 29.136719 A 17.61066 17.61066 0 0 1 47 41.927734 L 47 41 A 1 1 0 0 0 46.316406 40.050781 L 43.708984 39.181641 L 43.154297 38.072266 L 44.832031 35.554688 A 0.9993 0.9993 0 0 0 44.554688 34.167969 L 42.191406 32.591797 L 42.818359 30.708984 L 44.236328 30 L 47 30 A 0.99858 0.99858 0 0 0 47.316406 29.949219 L 49.75 29.136719 z M 0 31 L 0 33 L 2 33 L 2 31 L 0 31 z M 57 31 A 0.99974 0.99974 0 0 0 56 32 A 24.0275 24.0275 0 0 1 32 56 A 1 1 0 0 0 32 58 A 26.02916 26.02916 0 0 0 58 32 A 0.99974 0.99974 0 0 0 57 31 z M 62 31 L 62 33 L 64 33 L 64 31 L 62 31 z M 2.7636719 38.798828 L 0.83203125 39.316406 L 1.3496094 41.248047 L 3.28125 40.730469 L 2.7636719 38.798828 z M 61.236328 38.798828 L 60.71875 40.730469 L 62.650391 41.248047 L 63.167969 39.316406 L 61.236328 38.798828 z M 5.5195312 46.134766 L 3.7871094 47.134766 L 4.7871094 48.865234 L 6.5195312 47.865234 L 5.5195312 46.134766 z M 58.480469 46.134766 L 57.480469 47.865234 L 59.212891 48.865234 L 60.212891 47.134766 L 58.480469 46.134766 z M 10.080078 52.505859 L 8.6660156 53.919922 L 10.080078 55.333984 L 11.494141 53.919922 L 10.080078 52.505859 z M 53.919922 52.505859 L 52.505859 53.919922 L 53.919922 55.333984 L 55.333984 53.919922 L 53.919922 52.505859 z M 16.134766 57.480469 L 15.134766 59.212891 L 16.865234 60.212891 L 17.865234 58.480469 L 16.134766 57.480469 z M 47.865234 57.480469 L 46.134766 58.480469 L 47.134766 60.212891 L 48.865234 59.212891 L 47.865234 57.480469 z M 23.269531 60.71875 L 22.751953 62.650391 L 24.683594 63.167969 L 25.201172 61.236328 L 23.269531 60.71875 z M 40.730469 60.71875 L 38.798828 61.236328 L 39.316406 63.167969 L 41.248047 62.650391 L 40.730469 60.71875 z M 31 62 L 31 64 L 33 64 L 33 62 L 31 62 z"/></svg>