<svg fill="#c9ff00" xmlns="http://www.w3.org/2000/svg"  viewBox="0 0 64 64" width="64px" height="64px"><path d="M 31.503906 0.0078125 A 17 17 0 0 0 15 17 C 15 28.236 30.571375 46.857531 31.234375 47.644531 A 1 1 0 0 0 32 48 A 1 1 0 0 0 32.765625 47.644531 C 33.428625 46.857531 49 28.236 49 17 A 17 17 0 0 0 31.503906 0.0078125 z M 32 2 A 15.017 15.017 0 0 1 47 17 C 47 26.154 35.157 41.493922 32 45.419922 C 28.842 41.493922 17 26.158 17 17 A 15.017 15.017 0 0 1 32 2 z M 31.679688 6.0039062 A 11 11 0 0 0 32 28 A 11.013 11.013 0 0 0 43 17 A 11 11 0 0 0 31.679688 6.0039062 z M 32.263672 8.0039062 A 9 9 0 0 1 32 26 A 9.01 9.01 0 0 1 23 17 A 9 9 0 0 1 32.263672 8.0039062 z M 7 38 A 1 1 0 0 0 6.0292969 38.757812 L 0.029296875 62.757812 A 1 1 0 0 0 1 64 L 63 64 A 1 1 0 0 0 63.970703 62.757812 L 57.970703 38.757812 A 1 1 0 0 0 57 38 L 42 38 A 1 1 0 0 0 42 40 L 43.71875 40 L 42.21875 46 L 36 46 A 1 1 0 0 0 36 48 L 43 48 A 1 1 0 0 0 43.970703 47.242188 L 45.779297 40 L 51.720703 40 L 50.029297 46.757812 A 1 1 0 0 0 51 48 L 58.21875 48 L 59.71875 54 L 49 54 A 1 1 0 0 0 48.029297 54.757812 L 46.220703 62 L 40.279297 62 L 41.970703 55.242188 A 1 1 0 0 0 41 54 L 4.28125 54 L 5.78125 48 L 28 48 A 1 1 0 0 0 28 46 L 6.28125 46 L 7.78125 40 L 22 40 A 1 1 0 0 0 22 38 L 7 38 z M 53.78125 40 L 56.21875 40 L 57.71875 46 L 52.28125 46 L 53.78125 40 z M 3.78125 56 L 39.71875 56 L 38.21875 62 L 2.28125 62 L 3.78125 56 z M 49.78125 56 L 60.21875 56 L 61.71875 62 L 48.28125 62 L 49.78125 56 z"/></svg>