<svg fill="#c9ff00" xmlns="http://www.w3.org/2000/svg"  viewBox="0 0 64 64" width="64px" height="64px"><path d="M 31.949219 0.001953125 A 1.00069 1.00069 0 0 0 31.478516 0.14648438 L 0.47851562 19.146484 A 0.99965 0.99965 0 0 0 0.4453125 20.832031 L 3.4453125 22.832031 A 1 1 0 1 0 4.5546875 21.167969 L 2.8554688 20.035156 L 32 2.171875 L 61.144531 20.035156 L 59.445312 21.167969 A 1 1 0 1 0 60.554688 22.832031 L 63.554688 20.832031 A 0.99965 0.99965 0 0 0 63.521484 19.146484 L 32.521484 0.14648438 A 1.00069 1.00069 0 0 0 31.949219 0.001953125 z M 31.949219 10.001953 A 1.00069 1.00069 0 0 0 31.478516 10.146484 L 0.47851562 29.146484 A 0.99965 0.99965 0 0 0 0.4453125 30.832031 L 3.4453125 32.832031 A 1 1 0 1 0 4.5546875 31.167969 L 2.8554688 30.035156 L 32 12.171875 L 61.144531 30.035156 L 59.445312 31.167969 A 1 1 0 1 0 60.554688 32.832031 L 63.554688 30.832031 A 0.99965 0.99965 0 0 0 63.521484 29.146484 L 32.521484 10.146484 A 1.00069 1.00069 0 0 0 31.949219 10.001953 z M 22 22 A 3.00328 3.00328 0 0 0 19 25 L 19 61 A 3.00328 3.00328 0 0 0 22 64 L 42 64 A 3.00328 3.00328 0 0 0 45 61 L 45 25 A 3.00328 3.00328 0 0 0 42 22 L 22 22 z M 22 24 L 42 24 A 1.001 1.001 0 0 1 43 25 L 43 28 L 21 28 L 21 25 A 1.001 1.001 0 0 1 22 24 z M 31 25 A 1 1 0 0 0 31 27 L 33 27 A 1 1 0 0 0 33 25 L 31 25 z M 16.960938 29 A 0.99838 0.99838 0 0 0 16.509766 29.128906 L 0.50976562 38.128906 A 1 1 0 0 0 0.50976562 39.871094 L 16.509766 48.871094 A 1 1 0 0 0 17.490234 47.128906 L 3.0390625 39 L 17.490234 30.871094 A 0.99914 0.99914 0 0 0 17.871094 29.509766 A 0.99838 0.99838 0 0 0 16.960938 29 z M 47.011719 29.001953 A 1 1 0 0 0 46.509766 30.871094 L 60.960938 39 L 46.509766 47.128906 A 1 1 0 1 0 47.490234 48.871094 L 63.490234 39.871094 A 1 1 0 0 0 63.490234 38.128906 L 47.490234 29.128906 A 1 1 0 0 0 47.011719 29.001953 z M 21 30 L 43 30 L 43 56 L 21 56 L 21 30 z M 31.962891 32 A 1.00109 1.00109 0 0 0 31.552734 32.105469 L 23.552734 36.105469 A 0.99985 0.99985 0 0 0 23 37 L 23 47 A 0.99985 0.99985 0 0 0 23.552734 47.894531 L 31.552734 51.894531 A 1.00111 1.00111 0 0 0 32.447266 51.894531 L 40.447266 47.894531 A 0.99985 0.99985 0 0 0 41 47 L 41 37 A 0.99985 0.99985 0 0 0 40.447266 36.105469 L 32.447266 32.105469 A 1.00109 1.00109 0 0 0 31.962891 32 z M 32 34.117188 L 37.763672 37 L 32 39.882812 L 26.236328 37 L 32 34.117188 z M 25 38.617188 L 31 41.617188 L 31 49.382812 L 25 46.382812 L 25 38.617188 z M 39 38.617188 L 39 46.382812 L 33 49.382812 L 33 41.617188 L 39 38.617188 z M 24 53 A 1 1 0 0 0 24 55 L 34 55 A 1 1 0 0 0 34 53 L 24 53 z M 38 53 A 1 1 0 0 0 38 55 L 40 55 A 1 1 0 0 0 40 53 L 38 53 z M 21 58 L 43 58 L 43 61 A 1.001 1.001 0 0 1 42 62 L 22 62 A 1.001 1.001 0 0 1 21 61 L 21 58 z M 31 59 A 1 1 0 0 0 31 61 L 33 61 A 1 1 0 0 0 33 59 L 31 59 z"/></svg>