<svg fill="#c9ff00" xmlns="http://www.w3.org/2000/svg"  viewBox="0 0 64 64" width="64px" height="64px"><path d="M 41.970703 -0.005859375 A 1 1 0 0 0 41 0.99414062 L 41 5.0136719 C 41 5.2992119 40.89746 12.009766 32 12.009766 C 23.16162 12.009766 23.00244 5.2953119 23 5.0136719 L 23 1.0058594 A 1 1 0 0 0 21 1.0058594 L 21 2.0058594 A 0.91793 0.91793 0 0 1 20 0.99609375 A 1.0000119 1.0000119 0 1 0 18 1.0058594 A 2.915 2.915 0 0 0 21 4.0039062 L 21 5.0039062 A 9.23921 9.23921 0 0 0 26.044922 12.783203 C 26.028202 12.855723 24.999575 16 22.859375 16 L 17 16 A 1.00142 1.00142 0 0 0 16.712891 16.042969 C 16.275381 16.174309 5.99927 19.502733 6 41.001953 A 1.00221 1.00221 0 0 0 7 42 L 8 42 L 8 63 A 1 1 0 0 0 10 63 L 10 42 L 16 42 L 16 63 A 1 1 0 0 0 18 63 L 18 30 A 1 1 0 0 0 16 30 L 16 40 L 8.0078125 40 C 8.2919925 22.19336 16.141571 18.419 17.175781 18 L 22.050781 18 A 10.00036 10.00036 0 0 0 41.951172 18 L 46.822266 18 C 47.880866 18.43018 55.708497 22.21924 55.992188 40 L 48 40 L 48 30 A 1 1 0 0 0 46 30 L 46 63 A 1 1 0 0 0 48 63 L 48 42 L 54 42 L 54 63 A 1 1 0 0 0 56 63 L 56 42 L 57 42 A 1.00221 1.00221 0 0 0 58 41.001953 C 58.00073 19.502723 47.724619 16.174309 47.287109 16.042969 A 1.00142 1.00142 0 0 0 47 16 L 41.140625 16 C 39.000425 16 37.971798 12.851897 37.955078 12.779297 A 9.248 9.248 0 0 0 43 4.9960938 L 43 3.9941406 A 2.91625 2.91625 0 0 0 46 0.99414062 A 0.99424 0.99424 0 0 0 45.013672 0 L 45 0 A 1.00639 1.00639 0 0 0 44 0.98242188 A 0.91879 0.91879 0 0 1 43 1.9941406 L 43 0.99414062 A 1 1 0 0 0 41.970703 -0.005859375 z M 27.658203 3 C 26.450203 3 26.00161 3.4391419 26 3.9824219 A 6.00533 6.00533 0 0 0 32 9.9980469 A 6.00527 6.00527 0 0 0 38 3.9765625 A 0.99167 0.99167 0 0 0 37.005859 3 L 27.658203 3 z M 28.126953 5 L 35.873047 5 A 4.00108 4.00108 0 0 1 28.126953 5 z M 27.960938 13.507812 A 15.24634 15.24634 0 0 0 32 14.009766 A 15.24634 15.24634 0 0 0 36.039062 13.507812 C 36.326172 15.994462 38.691944 17.23192 39.964844 17.71875 A 8.0067 8.0067 0 0 1 32 25.005859 A 8.0067 8.0067 0 0 1 24.035156 17.71875 C 25.308046 17.23192 27.673827 15.994463 27.960938 13.507812 z M 22 32 A 1 1 0 0 0 21 33 L 21 37 L 23 37 L 23 34 L 26 34 L 26 32 L 22 32 z M 30 32 L 30 33.998047 L 34 33.998047 L 34 32 L 30 32 z M 38 32 L 38 34 L 41 34 L 41 37 L 43 37 L 43 33 A 0.99963 0.99963 0 0 0 42 32 L 38 32 z M 33.123047 36.003906 A 2.99892 2.99892 0 0 0 30 39 A 3.00274 3.00274 0 0 0 33 42 A 2.99892 2.99892 0 0 0 33.123047 36.003906 z M 33 38.001953 A 0.99964 0.99964 0 1 1 32 39 A 1.00081 1.00081 0 0 1 33 38.001953 z M 21 41 L 21 45 L 23 45 L 23 41 L 21 41 z M 41 41 L 41 45 L 43 45 L 43 41 L 41 41 z M 36.986328 42.998047 A 0.99817 0.99817 0 0 0 36.400391 43.199219 L 32.800781 45.898438 L 30.78125 43.375 A 1.00027 1.00027 0 0 0 30.054688 43.001953 A 1.01323 1.01323 0 0 0 29.292969 43.292969 L 24.292969 48.291016 A 0.99971112 0.99971112 0 0 0 25.707031 49.703125 L 29.917969 45.496094 L 33.21875 49.621094 A 1 1 0 1 0 34.78125 48.373047 L 34.050781 47.458984 L 36.90625 45.318359 L 39.292969 47.705078 A 0.99971 0.99971 0 1 0 40.707031 46.291016 L 37.707031 43.292969 A 0.99817 0.99817 0 0 0 36.986328 42.998047 z M 21 49 L 21 53 A 0.99963 0.99963 0 0 0 22 54 L 26 54 L 26 52 L 23 52 L 23 49 L 21 49 z M 41 49 L 41 52 L 38 52 L 38 54 L 42 54 A 1 1 0 0 0 43 53 L 43 49 L 41 49 z M 30 52 L 30 54 L 34 54 L 34 52 L 30 52 z"/></svg>